<svg xmlns="http://www.w3.org/2000/svg" enable-background="new 0 0 68 68" viewBox="0 0 68 68"><path fill="#FFF" d="M33.45498,48.77941L19.21925,34.5437c2.53175-6.8032,6.49908-12.90624,11.53427-17.94142
			c9.02375-9.02374,21.4632-14.60347,35.2393-14.60343c0,0.15556-0.00708,0.3182-0.00708,0.47376
			C65.80184,23.73075,52.30161,41.75698,33.45498,48.77941z"/><path fill="#DFE1E6" d="M33.45498,48.77941L19.21925,34.5437C45.85199,49.50779,63.52472,8.58274,65.98573,2.47261
			C65.80184,23.73075,52.30161,41.75698,33.45498,48.77941z"/><line x1="22.298" x2="26.335" y1="45.7" y2="41.663" fill="#DFE1E6"/><path fill="#FAC41D" d="M19.21933 34.5379l-7.64673-7.64671c-2.02175-2.02175-.59303-5.48122 2.27332-5.47223l14.22417-1.89601C24.2962 23.9259 21.286 29.00271 19.21933 34.5379zM41.09917 56.41768l-7.63773-7.63771c5.53514-2.06673 10.61201-5.07687 15.0149-8.85082L46.58035 54.1533C46.58041 57.0107 43.12992 58.44843 41.09917 56.41768z"/><path fill="#F4A01E" d="M47.72153,45.60803c-3.37858,2.56986-7.09857,4.70848-11.08821,6.34381l-3.17188-3.17187
			c5.53514-2.06673,10.61201-5.07687,15.0149-8.85082L47.72153,45.60803z"/><path fill="#F37D7F" d="M61.84764,21.87049c2.65355-6.08927,4.15073-12.79855,4.15072-19.87051l0.00011-0.00011h-0.00033
			c-7.07197,0.00001-13.7812,1.49713-19.87048,4.15068L61.84764,21.87049z"/><path fill="#F37D7F" d="M61.84764,21.87049c2.65355-6.08927,4.15073-12.79855,4.15072-19.87051l0.00011-0.00011h-0.00033
			c-7.07197,0.00001-13.7812,1.49713-19.87048,4.15068L61.84764,21.87049z"/><path fill="#EF3F3E" d="M61.84536,21.92138c2.60388-5.96388,4.08055-12.53331,4.14038-19.44877
			c-0.87061,2.16154-3.64719,8.68072-8.04852,15.54063L61.84536,21.92138z"/><circle cx="43.771" cy="24.227" r="6.354" fill="#5EA7DC"/><path fill="#FFF" d="M21.79724,55.17124c-0.01004-0.01004-0.02123-0.01831-0.03131-0.02831
			c0.18341-0.14662,0.36188-0.30226,0.5318-0.47218c2.47713-2.47713,2.47713-6.49331,0-8.97044
			c-2.47709-2.47708-6.49332-2.47712-8.97046,0.00001c-0.16992,0.16992-0.32556,0.34838-0.47218,0.5318
			c-0.01-0.01009-0.01827-0.02127-0.02831-0.03131c-2.47714-2.47713-6.49332-2.47712-8.97046,0.00001
			c-2.47713,2.47713-2.47713,6.49332,0,8.97044c2.47714,2.47713,6.49332,2.47713,8.97046-0.00001
			c0.16992-0.16993,0.16992-0.16993,0,0c-2.47713,2.47713-2.47709,6.49336,0,8.97045
			c2.47714,2.47713,6.49337,2.47717,8.9705,0.00003C24.27442,61.66459,24.27438,57.64837,21.79724,55.17124z"/><path fill="#DFE1E6" d="M21.80049,64.13953c-2.48224,2.48224-6.49908,2.48219-8.97424,0.00703
			c-1.49216-1.49216-2.08622-3.54298-1.77505-5.46655c0.24042,0.42429,0.55159,0.82032,0.91934,1.18807
			c2.47516,2.47516,6.49204,2.47516,8.96721,0c0.99004-0.99004,1.58406-2.2347,1.78209-3.52183
			C24.22615,58.78611,23.91498,62.02504,21.80049,64.13953z"/><path fill="#010101" d="M32.40051 52.66987c-.39063-.39063-1.02344-.39063-1.41406 0l-2.69531 2.6958c-.39063.39063-.39063 1.02393 0 1.41406.39063.39063 1.02344.39063 1.41406 0l2.69531-2.6958C32.79114 53.69331 32.79114 53.06001 32.40051 52.66987zM15.32825 35.59761c-.39063-.39063-1.02344-.39063-1.41406 0l-2.6958 2.69531c-.39063.39014-.39063 1.02344 0 1.41406s1.02344.39063 1.41406 0l2.6958-2.69531C15.71887 36.62153 15.71887 35.98823 15.32825 35.59761z"/><path fill="#010101" d="M66.99817,1.99995v-1h-1c-12.06359,0-21.36403,4.77552-21.86816,4.94482l0.03687,0.03687
			c-6.30603,3.01691-11.95984,7.30597-16.57245,12.59564l-13.81744,1.8421c-1.70801,0.02197-3.16992,1.01074-3.82471,2.59229
			c-0.66406,1.60205-0.31396,3.35938,0.91309,4.58643l7.19171,7.19214l-0.00226,0.0061l6.86627,6.86652l-2.67694,2.67664
			c-2.84517-2.16568-6.84277-1.96968-9.46228,0.4964c-2.83018-2.15799-6.96385-2.01125-9.63281,0.65771
			c-2.86328,2.86328-2.86279,7.52197,0.00049,10.38477c1.91769,1.91769,4.61926,2.5505,7.06201,1.91162
			c-0.63721,2.44141-0.00098,5.14941,1.9082,7.05859c2.8656,2.86662,7.51516,2.87062,10.38477,0
			c2.60255-2.60255,2.87516-6.70684,0.65283-9.62793c2.47328-2.62113,2.66618-6.62371,0.50098-9.46722l2.67682-2.67651
			l6.86615,6.86639l0.00702-0.00262l7.1839,7.18427c2.65216,2.65216,7.12643,0.77394,7.1875-2.90088l1.84247-13.82172
			c5.28906-4.6123,9.57764-10.26569,12.5943-16.57111l0.03687,0.03687C62.28784,23.16411,66.99817,14.2828,66.99817,1.99995z
			 M21.09045,55.87837c2.08301,2.0835,2.08301,5.47266,0,7.55615c-2.08786,2.08786-5.46808,2.08856-7.55664,0
			c-2.08301-2.0835-2.08301-5.47266,0-7.55615l0.12744-0.12744c0.19531-0.19531,0.29297-0.45117,0.29297-0.70703
			s-0.09766-0.51172-0.29297-0.70703c-0.39063-0.39063-1.02344-0.39063-1.41406,0l-0.12744,0.12744
			c-2.08786,2.08786-5.46765,2.0885-7.55615,0c-2.0835-2.08301-2.0835-5.47314-0.00049-7.55664
			c2.13809-2.13809,5.5326-2.02097,7.51514-0.04443c0.22002,0.26307,0.53373,0.38699,0.84424,0.36621
			c0.56445-0.0375,0.70008-0.41053,1.11182-0.82227c2.0878-2.08781,5.46758-2.08857,7.55615,0
			c2.08909,2.08909,2.08857,5.46807,0,7.55664c-0.41224,0.41224-0.77377,0.53051-0.80713,1.13721
			C20.76721,55.3852,20.88928,55.6772,21.09045,55.87837z M61.3736,20.36024L47.63782,6.62446
			c5.53949-2.26477,11.43126-3.49174,17.34961-3.61377C64.86944,8.73332,63.70997,14.64544,61.3736,20.36024z M11.79993,23.77729
			c0.35205-0.85059,1.11279-1.3584,2.04297-1.3584l11.8584-1.57129c-2.83572,3.66359-5.2447,7.94569-6.85693,11.90137
			l-6.56494-6.56494C11.50989,25.41401,11.52698,24.43599,11.79993,23.77729z M47.15149,42.2978l-1.5625,11.72314l-0.00879,0.13232
			c0,1.97812-2.3743,2.95724-3.77393,1.55762l-6.55566-6.55615C39.23654,47.53101,43.49314,45.12939,47.15149,42.2978z
			 M33.69647,47.60987l-6.65338-6.65363c0,0-0.00024-0.00049-0.00049-0.00073l-0.00073-0.00049l-6.6524-6.65265
			C25.12572,22.09237,34.41132,12.66413,45.66364,7.4784l14.85596,14.85596C55.30785,33.64279,45.85159,42.89651,33.69647,47.60987z
			"/><path fill="#010101" d="M38.57141,19.02681c-2.8667,2.86719-2.8667,7.53271,0,10.3999c2.87469,2.87366,7.52466,2.87421,10.3999,0
			c2.8667-2.86719,2.8667-7.53271,0-10.3999C46.09662,16.15315,41.44659,16.1526,38.57141,19.02681z M47.55725,28.01265
			c-2.0968,2.09576-5.48291,2.08789-7.57178,0c-2.08691-2.0874-2.08691-5.48438,0-7.57178
			c2.09674-2.09576,5.48273-2.08807,7.57178,0C49.64417,22.52827,49.64417,25.92524,47.55725,28.01265z"/><path fill="#FFF" d="M19.27844,23.47993l-2.49072,0.23047c-0.41211,0.03809-0.71582,0.40332-0.67725,0.81592
		c0.03564,0.38867,0.36279,0.68066,0.74561,0.68066c0.02344,0,0.04639-0.00098,0.07031-0.00342l2.49072-0.23047
		c0.41211-0.03809,0.71582-0.40332,0.67725-0.81592C20.05627,23.74458,19.69153,23.43354,19.27844,23.47993z"/></svg>